#!OML:ASF H:\Dans Jumps\Project 1\Capture day 1\Session 1\subject.ASF
:FULLY-SPECIFIED
:DEGREES
550
root 0.102588 17.6882 10.4602 6.277 -1.40683 -1.49143
lowerback -5.3219 0.507107 0.472072
upperback -0.530474 0.614673 1.27798
thorax 2.42853 0.305506 1.09414
lowerneck -15.8892 0.160246 -2.39389
upperneck 16.914 0.521607 1.43357
head 7.83343 0.235422 0.927553
rclavicle 9.81499e-016 -2.00773e-014
rhumerus -26.1807 -16.4393 -81.1998
rradius 21.1156
rwrist 41.8836
rhand -15.7556 -25.9061
rfingers 7.12502
rthumb 10.4359 -55.6271
lclavicle 9.81499e-016 -2.00773e-014
lhumerus -23.8228 3.15201 89.6575
lradius 13.5232
lwrist -4.60894
lhand -23.3282 -6.56486
lfingers 7.12502
lthumb 3.12615 23.392
rfemur -10.0172 -2.67696 19.8207
rtibia 19.2331
rfoot -14.6475 2.32007
rtoes 14.886
lfemur -8.42506 7.89582 -17.6384
ltibia 16.329
lfoot -10.9429 6.68644
ltoes -7.27518
551
root 0.101974 17.6883 10.4589 6.26898 -1.37491 -1.48382
lowerback -5.31841 0.513814 0.466722
upperback -0.523811 0.624148 1.26799
thorax 2.43334 0.310208 1.08757
lowerneck -15.8994 0.148973 -2.40371
upperneck 16.9118 0.504408 1.45584
head 7.83475 0.228871 0.934646
rclavicle 1.77664e-015 -1.98785e-016
rhumerus -26.2102 -16.4595 -81.163
rradius 21.1069
rwrist 41.9062
rhand -15.7657 -25.9216
rfingers 7.12502
rthumb 10.4262 -55.6431
lclavicle 1.77664e-015 -1.98785e-016
lhumerus -23.8611 3.24445 89.5682
lradius 13.4848
lwrist -4.68382
lhand -23.3221 -6.52571
lfingers 7.12502
lthumb 3.13208 23.431
rfemur -10.0079 -2.71336 19.8157
rtibia 19.2315
rfoot -14.6504 2.32034
rtoes 14.8801
lfemur -8.42193 7.88576 -17.6428
ltibia 16.3233
lfoot -10.9436 6.66334
ltoes -7.26701
552
root 0.101285 17.6885 10.4575 6.26163 -1.34586 -1.48165
lowerback -5.31554 0.522197 0.464686
upperback -0.516381 0.635596 1.25983
thorax 2.43927 0.315915 1.08118
lowerneck -15.8971 0.132282 -2.42674
upperneck 16.8984 0.480363 1.49007
head 7.83022 0.219429 0.946984
rclavicle 3.10601e-016 5.96354e-015
rhumerus -26.2394 -16.4895 -81.1231
rradius 21.0957
rwrist 41.939
rhand -15.778 -25.9187
rfingers 7.12502
rthumb 10.4143 -55.6408
lclavicle 3.10601e-016 5.96354e-015
lhumerus -23.8997 3.33037 89.4806
lradius 13.4555
lwrist -4.75314
lhand -23.3128 -6.48743
lfingers 7.12502
lthumb 3.141 23.4692
rfemur -9.99999 -2.7437 19.8172
rtibia 19.2294
rfoot -14.6521 2.31888
rtoes 14.8772
lfemur -8.42087 7.87323 -17.641
ltibia 16.3197
lfoot -10.9423 6.64706
ltoes -7.26415
553
root 0.100563 17.6887 10.4561 6.25536 -1.31704 -1.47868
lowerback -5.31201 0.530273 0.460259
upperback -0.509538 0.646789 1.25183
thorax 2.44421 0.321473 1.07626
lowerneck -15.8813 0.111743 -2.45914
upperneck 16.8759 0.451631 1.53134
head 7.82037 0.207862 0.962548
rclavicle -3.66509e-015 -1.39149e-014
rhumerus -26.2661 -16.5308 -81.0809
rradius 21.0787
rwrist 41.9864
rhand -15.7903 -25.911
rfingers 7.12502
rthumb 10.4024 -55.6336
lclavicle -3.66509e-015 -1.39149e-014
lhumerus -23.938 3.41076 89.3942
lradius 13.4294
lwrist -4.81831
lhand -23.3025 -6.43856
lfingers 7.12502
lthumb 3.15099 23.5179
rfemur -9.99419 -2.77159 19.818
rtibia 19.2274
rfoot -14.6518 2.31702
rtoes 14.8791
lfemur -8.42314 7.86386 -17.6404
ltibia 16.3185
lfoot -10.9413 6.62922
ltoes -7.26257
554
root 0.0997753 17.6889 10.4546 6.25028 -1.28829 -1.47824
lowerback -5.3073 0.537921 0.455941
upperback -0.503947 0.65739 1.2456
thorax 2.44719 0.326734 1.07304
lowerneck -15.8728 0.0945087 -2.48833
upperneck 16.8578 0.427124 1.57109
head 7.81323 0.198351 0.977621
rclavicle -1.86361e-015 -1.09332e-014
rhumerus -26.2921 -16.5738 -81.0382
rradius 21.06
rwrist 42.0368
rhand -15.799 -25.9046
rfingers 7.12502
rthumb 10.3941 -55.6277
lclavicle -1.86361e-015 -1.09332e-014
lhumerus -23.9751 3.49462 89.308
lradius 13.4041
lwrist -4.88807
lhand -23.2941 -6.37609
lfingers 7.12502
lthumb 3.15906 23.5803
rfemur -9.99075 -2.79556 19.8221
rtibia 19.2264
rfoot -14.6507 2.312
rtoes 14.875
lfemur -8.42863 7.85418 -17.6369
ltibia 16.3197
lfoot -10.9398 6.61176
ltoes -7.2583
555
root 0.0988994 17.6889 10.453 6.245 -1.25971 -1.47624
lowerback -5.29903 0.54479 0.447301
upperback -0.499467 0.667266 1.23948
thorax 2.44699 0.331596 1.07225
lowerneck -15.8596 0.0765087 -2.51033
upperneck 16.8371 0.401749 1.60053
head 7.80444 0.187863 0.987956
rclavicle -5.60324e-015 8.34896e-015
rhumerus -26.316 -16.6219 -80.9951
rradius 21.0357
rwrist 42.0922
rhand -15.8084 -25.8892
rfingers 7.12502
rthumb 10.385 -55.6127
lclavicle -5.60324e-015 8.34896e-015
lhumerus -24.0098 3.58624 89.2189
lradius 13.3736
lwrist -4.97005
lhand -23.2868 -6.31439
lfingers 7.12502
lthumb 3.16611 23.6418
rfemur -9.98881 -2.81257 19.825
rtibia 19.228
rfoot -14.649 2.30024
rtoes 14.8711
lfemur -8.43563 7.84703 -17.6347
ltibia 16.3219
lfoot -10.936 6.59204
ltoes -7.26416
556
root 0.0978744 17.689 10.451 6.24145 -1.2312 -1.47392
lowerback -5.28667 0.550878 0.434332
upperback -0.49732 0.676395 1.23485
thorax 2.44205 0.336046 1.0753
lowerneck -15.8498 0.0619792 -2.51999
upperneck 16.8125 0.380692 1.61753
head 7.79495 0.179016 0.992615
rclavicle 8.32411e-016 5.76476e-015
rhumerus -26.3372 -16.664 -80.954
rradius 21.0098
rwrist 42.1414
rhand -15.8176 -25.873
rfingers 7.12502
rthumb 10.3761 -55.5969
lclavicle 8.32411e-016 5.76476e-015
lhumerus -24.0409 3.69024 89.1279
lradius 13.3358
lwrist -5.06624
lhand -23.2788 -6.23603
lfingers 7.12502
lthumb 3.17385 23.7201
rfemur -9.99133 -2.81889 19.8287
rtibia 19.2315
rfoot -14.6466 2.27771
rtoes 14.8685
lfemur -8.44761 7.84005 -17.6325
ltibia 16.3258
lfoot -10.9296 6.5708
ltoes -7.27553
557
root 0.0968286 17.6891 10.449 6.23721 -1.19984 -1.47073
lowerback -5.26826 0.555495 0.41856
upperback -0.497266 0.683812 1.2307
thorax 2.43154 0.339625 1.08019
lowerneck -15.845 0.0482446 -2.52685
upperneck 16.7942 0.360529 1.6326
head 7.78844 0.170563 0.996339
rclavicle 2.31087e-015 -5.56597e-015
rhumerus -26.3556 -16.7106 -80.9129
rradius 20.9791
rwrist 42.1949
rhand -15.8217 -25.8504
rfingers 7.12502
rthumb 10.3722 -55.5746
lclavicle 2.31087e-015 -5.56597e-015
lhumerus -24.0713 3.80673 89.0335
lradius 13.2938
lwrist -5.18223
lhand -23.2684 -6.16368
lfingers 7.12502
lthumb 3.1839 23.7923
rfemur -9.99342 -2.82145 19.8317
rtibia 19.2367
rfoot -14.6451 2.24831
rtoes 14.864
lfemur -8.46039 7.83435 -17.6306
ltibia 16.3317
lfoot -10.9258 6.54337
ltoes -7.27939
558
root 0.0957178 17.6891 10.4465 6.23432 -1.16611 -1.47046
lowerback -5.24504 0.559513 0.404215
upperback -0.498641 0.690394 1.22741
thorax 2.4169 0.342809 1.08503
lowerneck -15.8376 0.0336901 -2.52152
upperneck 16.7642 0.338696 1.63534
head 7.7777 0.160926 0.9937
rclavicle -4.65902e-015 5.96354e-016
rhumerus -26.3706 -16.7515 -80.8768
rradius 20.9487
rwrist 42.2395
rhand -15.827 -25.8303
rfingers 7.12502
rthumb 10.367 -55.5548
lclavicle -4.65902e-015 5.96354e-016
lhumerus -24.0962 3.93297 88.9357
lradius 13.2454
lwrist -5.31433
lhand -23.2549 -6.10793
lfingers 7.12502
lthumb 3.19691 23.8479
rfemur -9.99746 -2.81783 19.8388
rtibia 19.2414
rfoot -14.6423 2.21035
rtoes 14.8616
lfemur -8.47845 7.82661 -17.6249
ltibia 16.3411
lfoot -10.9225 6.51441
ltoes -7.2758
559
root 0.094672 17.6892 10.4439 6.23111 -1.13097 -1.47155
lowerback -5.21826 0.562983 0.391912
upperback -0.500668 0.696175 1.22387
thorax 2.39962 0.345624 1.08836
lowerneck -15.8143 0.0155787 -2.52211
upperneck 16.7219 0.312095 1.6431
head 7.76018 0.149143 0.993032
rclavicle 4.46023e-015 -6.36111e-015
rhumerus -26.3807 -16.7974 -80.8435
rradius 20.9156
rwrist 42.2885
rhand -15.8311 -25.8104
rfingers 7.12502
rthumb 10.3631 -55.535
lclavicle 4.46023e-015 -6.36111e-015
lhumerus -24.1164 4.04279 88.8425
lradius 13.2008
lwrist -5.42638
lhand -23.2298 -6.0265
lfingers 7.12502
lthumb 3.22121 23.9289
rfemur -10 -2.81347 19.8473
rtibia 19.244
rfoot -14.6379 2.17084
rtoes 14.8599
lfemur -8.49905 7.81907 -17.6177
ltibia 16.3555
lfoot -10.9218 6.48485
ltoes -7.27392
560
root 0.0936331 17.6893 10.4412 6.22729 -1.09567 -1.47662
lowerback -5.18729 0.566449 0.383546
upperback -0.503832 0.701758 1.22107
thorax 2.37887 0.348385 1.09016
lowerneck -15.7867 -0.00441276 -2.53167
upperneck 16.6786 0.282893 1.6616
head 7.74162 0.136589 0.997086
rclavicle -1.0635e-014 0
rhumerus -26.3889 -16.8429 -80.8137
rradius 20.8816
rwrist 42.3376
rhand -15.8371 -25.7957
rfingers 7.12502
rthumb 10.3573 -55.5206
lclavicle -1.0635e-014 0
lhumerus -24.1352 4.1472 88.7497
lradius 13.1599
lwrist -5.52988
lhand -23.1906 -5.96773
lfingers 7.12502
lthumb 3.25908 23.9871
rfemur -10.0004 -2.80641 19.8603
rtibia 19.2432
rfoot -14.6315 2.12874
rtoes 14.8587
lfemur -8.52174 7.80797 -17.606
ltibia 16.3748
lfoot -10.9237 6.45915
ltoes -7.26318
561
root 0.0926453 17.6894 10.4384 6.22201 -1.06019 -1.48478
lowerback -5.15253 0.569135 0.37804
upperback -0.507409 0.706163 1.21899
thorax 2.35562 0.350589 1.09094
lowerneck -15.7462 -0.0261507 -2.54665
upperneck 16.6267 0.251327 1.68525
head 7.71797 0.123059 1.00338
rclavicle 7.51655e-015 -1.61016e-014
rhumerus -26.3944 -16.8888 -80.7874
rradius 20.8482
rwrist 42.3924
rhand -15.8413 -25.7823
rfingers 7.12502
rthumb 10.3532 -55.5075
lclavicle 7.51655e-015 -1.61016e-014
lhumerus -24.1498 4.25166 88.6551
lradius 13.1142
lwrist -5.62829
lhand -23.145 -5.95746
lfingers 7.12502
lthumb 3.30311 23.9967
rfemur -9.99801 -2.80032 19.8764
rtibia 19.2396
rfoot -14.6231 2.08881
rtoes 14.8641
lfemur -8.54487 7.79526 -17.5908
ltibia 16.3979
lfoot -10.9278 6.4371
ltoes -7.24678
